<svg xmlns="http://www.w3.org/2000/svg" xmlns:xlink="http://www.w3.org/1999/xlink" width="500" zoomAndPan="magnify" viewBox="0 0 375 374.999991" height="500" preserveAspectRatio="xMidYMid meet" version="1.0"><defs><g/><clipPath id="5bbc28cc46"><path d="M 122.152344 109.359375 L 240 109.359375 L 240 213 L 122.152344 213 Z M 122.152344 109.359375 " clip-rule="nonzero"/></clipPath><clipPath id="ddae779205"><path d="M 123 134 L 250 134 L 250 218.859375 L 123 218.859375 Z M 123 134 " clip-rule="nonzero"/></clipPath><clipPath id="b9c2c59ede"><path d="M 137 208 L 252.652344 208 L 252.652344 218.859375 L 137 218.859375 Z M 137 208 " clip-rule="nonzero"/></clipPath></defs><g fill="#1b1919" fill-opacity="1"><g transform="translate(127.692686, 262.122895)"><g><path d="M 10.515625 -36.46875 L 10.515625 -8.53125 L 25.296875 -8.53125 C 25.296875 -6.976562 24.9375 -5.546875 24.21875 -4.234375 C 23.507812 -2.929688 22.5625 -1.898438 21.375 -1.140625 C 20.1875 -0.378906 18.878906 0 17.453125 0 L 1.9375 0 C 1.9375 -0.0195312 1.941406 -0.0351562 1.953125 -0.046875 C 1.972656 -0.0664062 1.984375 -0.078125 1.984375 -0.078125 C 1.984375 -0.078125 1.96875 -0.078125 1.9375 -0.078125 L 1.9375 -28.625 C 1.9375 -30.082031 2.320312 -31.394531 3.09375 -32.5625 C 3.875 -33.738281 4.910156 -34.679688 6.203125 -35.390625 C 7.492188 -36.109375 8.929688 -36.46875 10.515625 -36.46875 Z M 10.515625 -36.46875 "/></g></g></g><g fill="#1b1919" fill-opacity="1"><g transform="translate(155.004627, 262.122895)"><g><path d="M 27.96875 -33.203125 C 28.351562 -32.609375 28.648438 -31.96875 28.859375 -31.28125 C 29.066406 -30.601562 29.171875 -29.898438 29.171875 -29.171875 L 29.171875 -7.375 C 29.171875 -5.925781 28.800781 -4.628906 28.0625 -3.484375 C 27.332031 -2.347656 26.359375 -1.429688 25.140625 -0.734375 C 23.921875 -0.0351562 22.5625 0.375 21.0625 0.5 C 20.625 0.53125 19.957031 0.5625 19.0625 0.59375 C 18.175781 0.632812 17.28125 0.660156 16.375 0.671875 C 15.46875 0.691406 14.753906 0.703125 14.234375 0.703125 C 13.484375 0.703125 12.757812 0.679688 12.0625 0.640625 C 11.363281 0.597656 10.691406 0.550781 10.046875 0.5 C 8.929688 0.394531 7.875 0.164062 6.875 -0.1875 C 5.882812 -0.550781 5.03125 -1.097656 4.3125 -1.828125 C 3.738281 -2.285156 3.347656 -2.773438 3.140625 -3.296875 C 2.753906 -3.890625 2.457031 -4.53125 2.25 -5.21875 C 2.039062 -5.90625 1.9375 -6.625 1.9375 -7.375 L 1.9375 -29.171875 C 1.9375 -30.597656 2.304688 -31.878906 3.046875 -33.015625 C 3.785156 -34.148438 4.769531 -35.066406 6 -35.765625 C 7.226562 -36.460938 8.578125 -36.878906 10.046875 -37.015625 C 11.472656 -37.140625 12.9375 -37.203125 14.4375 -37.203125 C 14.925781 -37.203125 15.613281 -37.195312 16.5 -37.1875 C 17.394531 -37.175781 18.269531 -37.15625 19.125 -37.125 C 19.976562 -37.101562 20.625 -37.066406 21.0625 -37.015625 C 22.207031 -36.910156 23.269531 -36.675781 24.25 -36.3125 C 25.226562 -35.945312 26.082031 -35.40625 26.8125 -34.6875 C 27.375 -34.21875 27.757812 -33.722656 27.96875 -33.203125 Z M 21.0625 -9.859375 L 21.0625 -26.890625 C 20.988281 -27.484375 20.753906 -27.972656 20.359375 -28.359375 C 19.972656 -28.742188 19.457031 -28.9375 18.8125 -28.9375 L 12.296875 -28.984375 C 11.648438 -28.984375 11.140625 -28.785156 10.765625 -28.390625 C 10.390625 -28.003906 10.148438 -27.503906 10.046875 -26.890625 L 10.046875 -9.859375 C 10.128906 -9.234375 10.363281 -8.734375 10.75 -8.359375 C 11.132812 -7.984375 11.648438 -7.796875 12.296875 -7.796875 L 18.8125 -7.765625 L 18.8125 -7.796875 C 19.457031 -7.796875 19.972656 -7.984375 20.359375 -8.359375 C 20.753906 -8.734375 20.988281 -9.234375 21.0625 -9.859375 Z M 21.0625 -9.859375 "/></g></g></g><g fill="#1b1919" fill-opacity="1"><g transform="translate(186.157309, 262.122895)"><g><path d="M 2.59375 -4.8125 C 2.15625 -5.789062 1.9375 -6.8125 1.9375 -7.875 L 1.9375 -28.59375 C 1.9375 -28.613281 1.941406 -28.628906 1.953125 -28.640625 C 1.972656 -28.660156 1.984375 -28.679688 1.984375 -28.703125 L 1.9375 -28.703125 C 1.9375 -30.984375 2.578125 -32.820312 3.859375 -34.21875 C 5.140625 -35.613281 6.800781 -36.363281 8.84375 -36.46875 L 24.4375 -36.46875 L 24.4375 -34.40625 C 24.4375 -33.164062 24.160156 -32.039062 23.609375 -31.03125 C 23.054688 -30.03125 22.273438 -29.238281 21.265625 -28.65625 C 20.253906 -28.070312 19.0625 -27.78125 17.6875 -27.78125 L 17.6875 -28.703125 L 12.375 -28.703125 C 11.832031 -28.648438 11.347656 -28.421875 10.921875 -28.015625 C 10.492188 -27.617188 10.226562 -27.148438 10.125 -26.609375 C 10.101562 -26.484375 10.09375 -26.367188 10.09375 -26.265625 L 10.09375 -23.75 C 10.09375 -23.644531 10.101562 -23.523438 10.125 -23.390625 L 10.125 -9.78125 C 10.226562 -9.1875 10.460938 -8.703125 10.828125 -8.328125 C 11.191406 -7.953125 11.679688 -7.765625 12.296875 -7.765625 L 20.59375 -7.765625 L 20.59375 -13.265625 C 20.59375 -13.503906 20.609375 -13.75 20.640625 -14 C 19.015625 -14.3125 17.710938 -15.039062 16.734375 -16.1875 C 15.765625 -17.34375 15.28125 -18.890625 15.28125 -20.828125 L 22.921875 -20.828125 C 24.085938 -20.828125 25.019531 -20.617188 25.71875 -20.203125 C 26.414062 -19.796875 26.925781 -19.269531 27.25 -18.625 C 27.570312 -17.976562 27.78125 -17.28125 27.875 -16.53125 C 27.96875 -15.78125 28 -15.0625 27.96875 -14.375 C 27.945312 -13.6875 27.9375 -13.109375 27.9375 -12.640625 L 27.890625 -7.0625 C 27.890625 -5.820312 27.617188 -4.707031 27.078125 -3.71875 C 26.535156 -2.738281 25.804688 -1.925781 24.890625 -1.28125 C 23.972656 -0.632812 22.96875 -0.207031 21.875 0 L 9.78125 -0.03125 C 8.894531 -0.113281 8.054688 -0.300781 7.265625 -0.59375 C 6.484375 -0.894531 5.769531 -1.289062 5.125 -1.78125 C 4.582031 -2.164062 4.097656 -2.617188 3.671875 -3.140625 C 3.242188 -3.660156 2.882812 -4.21875 2.59375 -4.8125 Z M 2.59375 -4.8125 "/></g></g></g><g fill="#1b1919" fill-opacity="1"><g transform="translate(216.146125, 262.122895)"><g><path d="M 27.96875 -33.203125 C 28.351562 -32.609375 28.648438 -31.96875 28.859375 -31.28125 C 29.066406 -30.601562 29.171875 -29.898438 29.171875 -29.171875 L 29.171875 -7.375 C 29.171875 -5.925781 28.800781 -4.628906 28.0625 -3.484375 C 27.332031 -2.347656 26.359375 -1.429688 25.140625 -0.734375 C 23.921875 -0.0351562 22.5625 0.375 21.0625 0.5 C 20.625 0.53125 19.957031 0.5625 19.0625 0.59375 C 18.175781 0.632812 17.28125 0.660156 16.375 0.671875 C 15.46875 0.691406 14.753906 0.703125 14.234375 0.703125 C 13.484375 0.703125 12.757812 0.679688 12.0625 0.640625 C 11.363281 0.597656 10.691406 0.550781 10.046875 0.5 C 8.929688 0.394531 7.875 0.164062 6.875 -0.1875 C 5.882812 -0.550781 5.03125 -1.097656 4.3125 -1.828125 C 3.738281 -2.285156 3.347656 -2.773438 3.140625 -3.296875 C 2.753906 -3.890625 2.457031 -4.53125 2.25 -5.21875 C 2.039062 -5.90625 1.9375 -6.625 1.9375 -7.375 L 1.9375 -29.171875 C 1.9375 -30.597656 2.304688 -31.878906 3.046875 -33.015625 C 3.785156 -34.148438 4.769531 -35.066406 6 -35.765625 C 7.226562 -36.460938 8.578125 -36.878906 10.046875 -37.015625 C 11.472656 -37.140625 12.9375 -37.203125 14.4375 -37.203125 C 14.925781 -37.203125 15.613281 -37.195312 16.5 -37.1875 C 17.394531 -37.175781 18.269531 -37.15625 19.125 -37.125 C 19.976562 -37.101562 20.625 -37.066406 21.0625 -37.015625 C 22.207031 -36.910156 23.269531 -36.675781 24.25 -36.3125 C 25.226562 -35.945312 26.082031 -35.40625 26.8125 -34.6875 C 27.375 -34.21875 27.757812 -33.722656 27.96875 -33.203125 Z M 21.0625 -9.859375 L 21.0625 -26.890625 C 20.988281 -27.484375 20.753906 -27.972656 20.359375 -28.359375 C 19.972656 -28.742188 19.457031 -28.9375 18.8125 -28.9375 L 12.296875 -28.984375 C 11.648438 -28.984375 11.140625 -28.785156 10.765625 -28.390625 C 10.390625 -28.003906 10.148438 -27.503906 10.046875 -26.890625 L 10.046875 -9.859375 C 10.128906 -9.234375 10.363281 -8.734375 10.75 -8.359375 C 11.132812 -7.984375 11.648438 -7.796875 12.296875 -7.796875 L 18.8125 -7.765625 L 18.8125 -7.796875 C 19.457031 -7.796875 19.972656 -7.984375 20.359375 -8.359375 C 20.753906 -8.734375 20.988281 -9.234375 21.0625 -9.859375 Z M 21.0625 -9.859375 "/></g></g></g><g clip-path="url(#5bbc28cc46)"><path fill="#1b1919" d="M 126.847656 211.160156 C 126.832031 211.15625 126.820312 211.152344 126.804688 211.144531 C 126.820312 211.152344 126.832031 211.15625 126.847656 211.160156 Z M 123.960938 209.523438 C 124.007812 209.5625 124.058594 209.601562 124.113281 209.644531 C 124.191406 209.707031 124.273438 209.769531 124.363281 209.835938 C 124.417969 209.878906 124.480469 209.921875 124.542969 209.964844 C 124.601562 210.007812 124.667969 210.050781 124.730469 210.09375 C 124.796875 210.136719 124.863281 210.179688 124.933594 210.222656 C 125.039062 210.289062 125.148438 210.355469 125.261719 210.417969 C 125.335938 210.460938 125.414062 210.503906 125.496094 210.546875 C 125.574219 210.589844 125.65625 210.632812 125.738281 210.675781 C 125.78125 210.695312 125.824219 210.71875 125.867188 210.738281 C 125.996094 210.800781 126.128906 210.863281 126.265625 210.925781 C 126.359375 210.964844 126.453125 211.003906 126.550781 211.046875 C 126.597656 211.066406 126.648438 211.085938 126.695312 211.105469 C 126.726562 211.113281 126.753906 211.125 126.78125 211.136719 C 126.804688 211.144531 126.824219 211.152344 126.847656 211.160156 C 126.867188 211.167969 126.882812 211.175781 126.90625 211.183594 C 126.914062 211.1875 126.925781 211.191406 126.933594 211.195312 C 126.957031 211.203125 126.976562 211.210938 127 211.21875 C 127.050781 211.238281 127.101562 211.253906 127.15625 211.273438 C 127.261719 211.3125 127.371094 211.347656 127.480469 211.378906 C 127.589844 211.414062 127.703125 211.449219 127.816406 211.484375 C 127.988281 211.535156 128.164062 211.582031 128.347656 211.625 C 128.589844 211.683594 128.839844 211.738281 129.105469 211.789062 C 129.234375 211.816406 129.367188 211.839844 129.503906 211.859375 C 135.496094 212.84375 146.257812 211.089844 164.585938 198.566406 C 172.355469 193.261719 179.910156 187.613281 186.960938 181.375 C 195.769531 173.582031 203.578125 164.121094 213.558594 157.773438 C 218.652344 154.53125 223.792969 151.320312 228.628906 147.695312 C 231.054688 145.871094 233.503906 143.890625 235.507812 141.554688 C 236.253906 140.691406 240.542969 135.195312 239.890625 133.527344 C 239.835938 133.390625 239.75 133.28125 239.628906 133.199219 C 235.632812 128.21875 222.324219 111.984375 216.539062 109.40625 C 216.539062 109.40625 210.953125 111.511719 212.21875 119.195312 C 213.421875 126.503906 210.335938 133.746094 198.976562 133.746094 C 198.386719 133.746094 197.777344 133.726562 197.148438 133.6875 C 192.757812 133.410156 188.496094 132.925781 184.648438 132.730469 C 183.695312 129.085938 180.902344 126.121094 177.375 126.914062 C 173.714844 127.738281 171.539062 132.53125 170.367188 136.316406 C 169.871094 136.933594 169.449219 137.640625 169.113281 138.460938 C 169.054688 138.601562 168.996094 138.746094 168.9375 138.890625 C 168.253906 140.527344 167.523438 142.152344 166.757812 143.765625 L 173.988281 147.191406 C 175.042969 147.6875 175.488281 148.945312 174.992188 149.996094 C 174.628906 150.753906 173.875 151.199219 173.085938 151.199219 C 172.785156 151.199219 172.476562 151.132812 172.183594 150.996094 L 164.882812 147.539062 C 163.738281 149.769531 162.535156 151.976562 161.300781 154.167969 L 167.394531 157.054688 C 168.449219 157.554688 168.894531 158.808594 168.398438 159.859375 C 168.039062 160.617188 167.28125 161.0625 166.492188 161.0625 C 166.1875 161.0625 165.882812 160.996094 165.589844 160.859375 L 159.207031 157.835938 C 157.90625 160.089844 156.589844 162.328125 155.292969 164.554688 L 160.066406 166.8125 C 161.117188 167.308594 161.5625 168.566406 161.066406 169.617188 C 160.707031 170.375 159.949219 170.820312 159.160156 170.820312 C 158.855469 170.820312 158.550781 170.753906 158.257812 170.617188 L 153.164062 168.203125 C 151.84375 170.4375 150.476562 172.65625 149.03125 174.820312 L 152.730469 176.570312 C 153.785156 177.070312 154.234375 178.324219 153.734375 179.375 C 153.375 180.132812 152.617188 180.578125 151.828125 180.578125 C 151.527344 180.578125 151.21875 180.511719 150.925781 180.375 L 146.578125 178.316406 C 143.589844 182.375 140.238281 186.144531 136.285156 189.335938 C 132.410156 192.464844 128.234375 194.4375 125.441406 198.742188 C 123.515625 201.714844 122.148438 205.621094 123.359375 208.964844 C 123.484375 209.097656 123.636719 209.246094 123.820312 209.402344 C 123.863281 209.441406 123.914062 209.480469 123.960938 209.523438 " fill-opacity="1" fill-rule="nonzero"/></g><g clip-path="url(#ddae779205)"><path fill="#1b1919" d="M 245.542969 138.351562 C 244.171875 136.886719 242.8125 135.566406 241.296875 134.390625 C 241.152344 135.441406 240.53125 136.777344 239.378906 138.582031 C 238.277344 140.296875 236.996094 141.925781 236.550781 142.449219 C 234.378906 144.96875 231.742188 147.070312 229.449219 148.789062 C 225 152.125 220.246094 155.148438 215.644531 158.066406 C 215.195312 158.355469 214.742188 158.640625 214.292969 158.929688 C 207.785156 163.066406 202.085938 168.6875 196.570312 174.125 C 193.757812 176.894531 190.851562 179.761719 187.867188 182.402344 C 181.457031 188.074219 174.09375 193.730469 165.363281 199.695312 C 158.101562 204.65625 151.441406 208.328125 145.554688 210.609375 C 140.671875 212.5 136.273438 213.460938 132.476562 213.460938 C 127.949219 213.460938 125.125 212.117188 123.492188 210.898438 C 125.609375 216.714844 131.515625 218.808594 137.839844 218.496094 C 151.453125 217.820312 165.335938 210.617188 176.496094 203.269531 C 185.0625 197.628906 191.574219 189.359375 200.105469 183.613281 C 206.023438 179.625 212.320312 176.242188 218.492188 172.671875 C 246.628906 156.410156 248.84375 148.671875 248.84375 148.671875 C 248.898438 148.433594 248.949219 148.195312 248.988281 147.953125 C 249.582031 144.332031 247.980469 140.953125 245.542969 138.351562 " fill-opacity="1" fill-rule="nonzero"/></g><g clip-path="url(#b9c2c59ede)"><path fill="#1b1919" d="M 137.839844 218.496094 L 252.644531 218.496094 L 181.429688 216.445312 L 230.511719 214.449219 L 198.683594 214.449219 L 248.007812 209.230469 L 167.910156 208 L 137.839844 218.496094 " fill-opacity="1" fill-rule="nonzero"/></g></svg>