<svg width="25" height="25" viewBox="0 0 25 25" fill="none" xmlns="http://www.w3.org/2000/svg">
<path d="M20.5 9.5H20.364C20.3267 9.43434 20.2821 9.37312 20.231 9.3175L14.459 3.1335C14.4845 3.01 14.5 2.882 14.5 2.75C14.5 1.7835 13.788 1 12.909 1H11.0905C10.212 1 9.5 1.7835 9.5 2.75C9.5 2.882 9.516 3.01 9.541 3.1335L3.769 9.3175C3.71792 9.37312 3.6733 9.43434 3.636 9.5H1V13H2V20.5C2 21.163 2.26339 21.7989 2.73223 22.2678C3.20107 22.7366 3.83696 23 4.5 23H20.5C21.163 23 21.7989 22.7366 22.2678 22.2678C22.7366 21.7989 23 21.163 23 20.5V13H24V9.5H20.5ZM11.091 4.5H12.9095L12.991 4.491L17.6655 9.5H6.3345L11.0095 4.491L11.091 4.5ZM6.5 20C6.5 20.55 6.05 21 5.5 21C4.95 21 4.5 20.55 4.5 20V14C4.5 13.45 4.95 13 5.5 13C6.05 13 6.5 13.45 6.5 14V20ZM11 20C11 20.55 10.55 21 10 21C9.45 21 9 20.55 9 20V14C9 13.45 9.45 13 10 13C10.55 13 11 13.45 11 14V20ZM16 20C16 20.55 15.55 21 15 21C14.45 21 14 20.55 14 20V14C14 13.45 14.45 13 15 13C15.55 13 16 13.45 16 14V20ZM20.5 20C20.5 20.55 20.05 21 19.5 21C18.95 21 18.5 20.55 18.5 20V14C18.5 13.45 18.95 13 19.5 13C20.05 13 20.5 13.45 20.5 14V20Z" fill="#61656B"/>
</svg>
