<svg width="24" height="24" viewBox="0 0 24 24" fill="none" xmlns="http://www.w3.org/2000/svg">
<path d="M12 21L10.55 19.7C8.86667 18.1833 7.475 16.875 6.375 15.775C5.275 14.675 4.4 13.6873 3.75 12.812C3.1 11.9367 2.646 11.1327 2.388 10.4C2.13 9.66733 2.00067 8.91733 2 8.15C2 6.58333 2.525 5.275 3.575 4.225C4.625 3.175 5.93333 2.65 7.5 2.65C8.36667 2.65 9.19167 2.83333 9.975 3.2C10.7583 3.56667 11.4333 4.08333 12 4.75C12.5667 4.08333 13.2417 3.56667 14.025 3.2C14.8083 2.83333 15.6333 2.65 16.5 2.65C18.0667 2.65 19.375 3.175 20.425 4.225C21.475 5.275 22 6.58333 22 8.15C22 8.91667 21.871 9.66667 21.613 10.4C21.355 11.1333 20.9007 11.9373 20.25 12.812C19.5993 13.6867 18.7243 14.6743 17.625 15.775C16.5257 16.8757 15.134 18.184 13.45 19.7L12 21ZM12 18.3C13.6 16.8667 14.9167 15.6377 15.95 14.613C16.9833 13.5883 17.8 12.6967 18.4 11.938C19 11.1793 19.4167 10.504 19.65 9.912C19.8833 9.32 20 8.73267 20 8.15C20 7.15 19.6667 6.31667 19 5.65C18.3333 4.98333 17.5 4.65 16.5 4.65C15.7167 4.65 14.9917 4.87067 14.325 5.312C13.6583 5.75333 13.2 6.316 12.95 7H11.05C10.8 6.31667 10.3417 5.75433 9.675 5.313C9.00833 4.87167 8.28333 4.65067 7.5 4.65C6.5 4.65 5.66667 4.98333 5 5.65C4.33333 6.31667 4 7.15 4 8.15C4 8.73333 4.11667 9.321 4.35 9.913C4.58333 10.505 5 11.18 5.6 11.938C6.2 12.696 7.01667 13.5877 8.05 14.613C9.08333 15.6383 10.4 16.8673 12 18.3Z" fill="#61656B"/>
</svg>
