<svg width="69" height="57" viewBox="0 0 69 57" fill="none" xmlns="http://www.w3.org/2000/svg">
<g filter="url(#filter0_d_7_138)">
<path d="M63.475 33.6875H61.95V23.342C61.95 22.1266 61.4639 20.959 60.6061 20.0977L51.0844 10.5369C50.2266 9.67559 49.0638 9.1875 47.8533 9.1875H43.65V4.59375C43.65 2.05762 41.6008 0 39.075 0H14.675C12.1492 0 10.1 2.05762 10.1 4.59375V9.1875H4.7625C4.34312 9.1875 4 9.53203 4 9.95312V11.4844C4 11.9055 4.34312 12.25 4.7625 12.25H30.6875C31.1069 12.25 31.45 12.5945 31.45 13.0156V14.5469C31.45 14.968 31.1069 15.3125 30.6875 15.3125H7.8125C7.39312 15.3125 7.05 15.657 7.05 16.0781V17.6094C7.05 18.0305 7.39312 18.375 7.8125 18.375H27.6375C28.0569 18.375 28.4 18.7195 28.4 19.1406V20.6719C28.4 21.093 28.0569 21.4375 27.6375 21.4375H4.7625C4.34312 21.4375 4 21.782 4 22.2031V23.7344C4 24.1555 4.34312 24.5 4.7625 24.5H24.5875C25.0069 24.5 25.35 24.8445 25.35 25.2656V26.7969C25.35 27.218 25.0069 27.5625 24.5875 27.5625H10.1V39.8125C10.1 44.8848 14.1984 49 19.25 49C24.3016 49 28.4 44.8848 28.4 39.8125H40.6C40.6 44.8848 44.6984 49 49.75 49C54.8016 49 58.9 44.8848 58.9 39.8125H63.475C64.3137 39.8125 65 39.1234 65 38.2812V35.2188C65 34.3766 64.3137 33.6875 63.475 33.6875ZM19.25 44.4062C16.7242 44.4062 14.675 42.3486 14.675 39.8125C14.675 37.2764 16.7242 35.2188 19.25 35.2188C21.7758 35.2188 23.825 37.2764 23.825 39.8125C23.825 42.3486 21.7758 44.4062 19.25 44.4062ZM49.75 44.4062C47.2242 44.4062 45.175 42.3486 45.175 39.8125C45.175 37.2764 47.2242 35.2188 49.75 35.2188C52.2758 35.2188 54.325 37.2764 54.325 39.8125C54.325 42.3486 52.2758 44.4062 49.75 44.4062ZM57.375 24.5H43.65V13.7812H47.8533L57.375 23.342V24.5Z" fill="black"/>
</g>
<defs>
<filter id="filter0_d_7_138" x="0" y="0" width="69" height="57" filterUnits="userSpaceOnUse" color-interpolation-filters="sRGB">
<feFlood flood-opacity="0" result="BackgroundImageFix"/>
<feColorMatrix in="SourceAlpha" type="matrix" values="0 0 0 0 0 0 0 0 0 0 0 0 0 0 0 0 0 0 127 0" result="hardAlpha"/>
<feOffset dy="4"/>
<feGaussianBlur stdDeviation="2"/>
<feComposite in2="hardAlpha" operator="out"/>
<feColorMatrix type="matrix" values="0 0 0 0 0 0 0 0 0 0 0 0 0 0 0 0 0 0 0.25 0"/>
<feBlend mode="normal" in2="BackgroundImageFix" result="effect1_dropShadow_7_138"/>
<feBlend mode="normal" in="SourceGraphic" in2="effect1_dropShadow_7_138" result="shape"/>
</filter>
</defs>
</svg>
