<svg width="62" height="62" viewBox="0 0 62 62" fill="none" xmlns="http://www.w3.org/2000/svg">
<g filter="url(#filter0_d_7_140)">
<path d="M57.856 24.1409C57.6077 23.0696 57.1285 22.0653 56.4521 21.1982C55.7656 20.3377 54.8994 19.6374 53.9142 19.1464C53.1372 18.7642 52.2939 18.5351 51.4303 18.4715C50.9902 13.7473 48.8962 9.33009 45.5175 5.99874C41.6703 2.15751 36.4559 0 31.0192 0C25.5825 0 20.368 2.15751 16.5208 5.99874C13.1421 9.33009 11.0482 13.7473 10.608 18.4715C9.74445 18.5351 8.90116 18.7642 8.12415 19.1464C7.13399 19.6298 6.26628 20.3313 5.58626 21.1982C4.90473 22.0634 4.42501 23.0699 4.18211 24.1442C3.93922 25.2184 3.9393 26.3334 4.18232 27.4076L8.42114 44.7669C9.15072 47.4267 10.736 49.7722 12.932 51.4411C15.1279 53.1099 17.8124 54.0092 20.5706 53.9999H41.3867C44.1543 54.0028 46.846 53.0951 49.0466 51.4167C51.2471 49.7383 52.8343 47.3826 53.5632 44.7129L57.775 27.4076C58.045 26.3385 58.072 25.2208 57.856 24.1409ZM22.4875 41.4732C22.4875 42.0102 22.2742 42.5252 21.8945 42.9049C21.5147 43.2847 20.9997 43.498 20.4626 43.498C19.9256 43.498 19.4105 43.2847 19.0308 42.9049C18.651 42.5252 18.4377 42.0102 18.4377 41.4732V30.8363C18.4377 30.2992 18.651 29.7842 19.0308 29.4045C19.4105 29.0248 19.9256 28.8115 20.4626 28.8115C20.9997 28.8115 21.5147 29.0248 21.8945 29.4045C22.2742 29.7842 22.4875 30.2992 22.4875 30.8363V41.4732ZM33.0441 41.4732C33.0441 41.7391 32.9917 42.0024 32.8899 42.248C32.7882 42.4937 32.639 42.7169 32.451 42.9049C32.263 43.093 32.0397 43.2421 31.7941 43.3439C31.5484 43.4456 31.2851 43.498 31.0192 43.498C30.7533 43.498 30.4899 43.4456 30.2443 43.3439C29.9986 43.2421 29.7754 43.093 29.5873 42.9049C29.3993 42.7169 29.2502 42.4937 29.1484 42.248C29.0466 42.0024 28.9943 41.7391 28.9943 41.4732V30.8363C28.9943 30.2992 29.2076 29.7842 29.5873 29.4045C29.9671 29.0248 30.4821 28.8115 31.0192 28.8115C31.5562 28.8115 32.0712 29.0248 32.451 29.4045C32.8307 29.7842 33.0441 30.2992 33.0441 30.8363V41.4732ZM43.6006 41.4732C43.6006 42.0102 43.3873 42.5252 43.0075 42.9049C42.6278 43.2847 42.1128 43.498 41.5757 43.498C41.0387 43.498 40.5236 43.2847 40.1439 42.9049C39.7641 42.5252 39.5508 42.0102 39.5508 41.4732V30.8363C39.5508 30.2992 39.7641 29.7842 40.1439 29.4045C40.5236 29.0248 41.0387 28.8115 41.5757 28.8115C42.1128 28.8115 42.6278 29.0248 43.0075 29.4045C43.3873 29.7842 43.6006 30.2992 43.6006 30.8363V41.4732ZM14.6849 18.4175C15.1289 14.7934 16.7843 11.4257 19.3827 8.86046C22.474 5.78416 26.6579 4.05715 31.0192 4.05715C35.3805 4.05715 39.5643 5.78416 42.6557 8.86046C45.254 11.4257 46.9094 14.7934 47.3535 18.4175H14.6849Z" fill="black"/>
</g>
<defs>
<filter id="filter0_d_7_140" x="0" y="0" width="62" height="62" filterUnits="userSpaceOnUse" color-interpolation-filters="sRGB">
<feFlood flood-opacity="0" result="BackgroundImageFix"/>
<feColorMatrix in="SourceAlpha" type="matrix" values="0 0 0 0 0 0 0 0 0 0 0 0 0 0 0 0 0 0 127 0" result="hardAlpha"/>
<feOffset dy="4"/>
<feGaussianBlur stdDeviation="2"/>
<feComposite in2="hardAlpha" operator="out"/>
<feColorMatrix type="matrix" values="0 0 0 0 0 0 0 0 0 0 0 0 0 0 0 0 0 0 0.25 0"/>
<feBlend mode="normal" in2="BackgroundImageFix" result="effect1_dropShadow_7_140"/>
<feBlend mode="normal" in="SourceGraphic" in2="effect1_dropShadow_7_140" result="shape"/>
</filter>
</defs>
</svg>
