<svg width="57" height="71" viewBox="0 0 57 71" fill="none" xmlns="http://www.w3.org/2000/svg">
<g filter="url(#filter0_d_7_136)">
<path d="M48.0742 28.7333C47.2787 27.6958 46.3104 26.7967 45.4112 25.8975C43.0942 23.8225 40.4658 22.3354 38.2525 20.1567C33.0996 15.1075 31.9583 6.77292 35.2437 0.375C31.9583 1.17042 29.0879 2.96875 26.6325 4.94C17.6754 12.1333 14.1479 24.8254 18.3671 35.7192C18.5054 36.065 18.6437 36.4108 18.6437 36.8604C18.6437 37.6213 18.125 38.3129 17.4333 38.5896C16.6379 38.9354 15.8079 38.7279 15.1508 38.1746C14.9545 38.0102 14.7904 37.8108 14.6667 37.5867C10.7587 32.6413 10.1362 25.5517 12.7646 19.88C6.98915 24.5833 3.84207 32.5375 4.29166 40.0421C4.49916 41.7713 4.70666 43.5004 5.29457 45.2296C5.77874 47.3046 6.71249 49.3796 7.74999 51.2125C11.485 57.1954 17.9521 61.4837 24.9033 62.3483C32.3042 63.2821 40.2237 61.9333 45.8954 56.815C52.2242 51.0742 54.4375 41.875 51.1867 33.99L50.7371 33.0908C50.0108 31.5 48.0742 28.7333 48.0742 28.7333ZM37.1458 50.5208C36.1775 51.3508 34.5867 52.25 33.3417 52.5958C29.4683 53.9792 25.595 52.0425 23.3125 49.76C27.4279 48.7917 29.8833 45.7483 30.6096 42.6704C31.1975 39.9037 30.0908 37.6213 29.6412 34.9583C29.2262 32.3992 29.2954 30.2204 30.2292 27.8342C30.8862 29.1483 31.5779 30.4625 32.4079 31.5C35.0708 34.9583 39.2554 36.48 40.1546 41.1833C40.2929 41.6675 40.3621 42.1517 40.3621 42.6704C40.4658 45.5062 39.2208 48.6187 37.1458 50.5208Z" fill="black"/>
</g>
<defs>
<filter id="filter0_d_7_136" x="0.249268" y="0.375" width="56.4255" height="70.2482" filterUnits="userSpaceOnUse" color-interpolation-filters="sRGB">
<feFlood flood-opacity="0" result="BackgroundImageFix"/>
<feColorMatrix in="SourceAlpha" type="matrix" values="0 0 0 0 0 0 0 0 0 0 0 0 0 0 0 0 0 0 127 0" result="hardAlpha"/>
<feOffset dy="4"/>
<feGaussianBlur stdDeviation="2"/>
<feComposite in2="hardAlpha" operator="out"/>
<feColorMatrix type="matrix" values="0 0 0 0 0 0 0 0 0 0 0 0 0 0 0 0 0 0 0.25 0"/>
<feBlend mode="normal" in2="BackgroundImageFix" result="effect1_dropShadow_7_136"/>
<feBlend mode="normal" in="SourceGraphic" in2="effect1_dropShadow_7_136" result="shape"/>
</filter>
</defs>
</svg>
