<svg version="1.2" xmlns="http://www.w3.org/2000/svg" viewBox="0 0 225 42" width="225" height="42"><style>.a{fill:#fff}.b{fill:#4fb7dc}</style><path class="a" d="m15.7 32.2l-15.9-6.4v-7.4l15.9-6.4h0.8v6.2l-10.8 3.7v0.4l10.8 3.7v6.2z"/><path class="b" d="m35.9 3.9h13.4v6.5h-1.6l-7.2 24.6h-13l-7.1-24.6h-1.6v-6.5h15.3v6.5h-2l2.7 13.4h0.4l2.8-13.4h-2.1z"/><path class="b" d="m52.4 10.6v-6.7h8.1v6.7zm-1.9 24.4v-6.6h1.8v-9.1h-1.8v-6.5h11v15.6h1.7v6.6z"/><path class="b" d="m90.9 28.4v6.6h-12.7v-6.6h1.7v-6.5q0-1.3-0.6-2-0.5-0.6-1.6-0.6-2.4 0-2.4 2.6v6.5h1.6v6.6h-12.6v-6.6h1.8v-9.1h-1.8v-6.5h11v3.1q2.8-3.7 7.2-3.7 3.3 0 4.9 2.1 1.7 2.1 1.7 5.7v8.4z"/><path class="b" d="m94.1 10.6v-6.7h8.1v6.7zm-1.9 24.4v-6.6h1.8v-9.1h-1.8v-6.5h11v15.6h1.7v6.6z"/><path class="b" d="m117.9 35.6q-5.7 0-8.9-3-3.2-3-3.2-8.7 0-5.7 3.2-8.7 3.2-3 8.9-3 2.8 0 5.3 0.8 2.5 0.7 3.9 1.7v7.9h-6.9v-0.7q0-1.3-0.6-2-0.5-0.6-1.7-0.6-2.3 0-2.3 2.6v3.4q0 3.1 3.5 3.1 3.4 0 7.7-0.7v6.3q-1.3 0.6-3.8 1.1-2.4 0.5-5.1 0.5z"/><path class="b" d="m130.4 10.6v-6.7h8.1v6.7zm-1.9 24.4v-6.6h1.8v-9.1h-1.8v-6.5h11v15.6h1.7v6.6z"/><path class="b" d="m168.6 28.4v6.6h-10.9v-3.1q-2.9 3.7-7.3 3.7-3.3 0-4.9-2.1-1.7-2.1-1.7-5.7v-8.5h-1.7v-6.5h10.9v13.1q0 1.3 0.6 1.9 0.6 0.6 1.7 0.6 1.2 0 1.8-0.6 0.5-0.6 0.6-1.9v-6.6h-2.2v-6.5h11.4v15.6z"/><path class="b" d="m179.4 35.6q-5 0-9.7-1.6v-6h6.5v0.4q0 2 2.5 2 2.1 0 2.1-1.5 0-0.8-0.6-1.2-0.6-0.4-2.2-0.7l-2-0.4q-6.3-1.1-6.3-7.1 0-3.5 2.7-5.4 2.6-1.9 7.1-1.9 5 0 8.4 1.7v5.5h-6v-0.4q0-0.8-0.6-1.2-0.5-0.4-1.6-0.4-2 0-2 1.3 0 0.7 0.6 1 0.6 0.4 2 0.7l2.3 0.4q3.6 0.7 5.1 2.6 1.5 1.8 1.5 4.7 0 3.6-2.5 5.5-2.6 2-7.3 2z"/><path class="a" d="m189 41v-1.2l12.8-38.5h5.7v1.3l-12.8 38.4z"/><path class="a" d="m208.5 32.2v-6.2l10.8-3.7v-0.4l-10.8-3.7v-6.2h0.8l15.9 6.4v7.4l-15.9 6.4z"/></svg>