<svg xmlns="http://www.w3.org/2000/svg" xmlns:xlink="http://www.w3.org/1999/xlink" width="500" zoomAndPan="magnify" viewBox="0 0 375 374.999991" height="500" preserveAspectRatio="xMidYMid meet" version="1.0"><defs><g/></defs><g fill="#ffffff" fill-opacity="1"><g transform="translate(73.335938, 200.999987)"><g><path d="M 17.359375 -2.765625 L 1.4375 -9.203125 L 1.4375 -16.5625 L 17.359375 -23.046875 L 18.203125 -23.046875 L 18.203125 -16.796875 L 7.359375 -13.125 L 7.359375 -12.6875 L 18.203125 -8.953125 L 18.203125 -2.765625 Z M 17.359375 -2.765625 "/></g></g></g><g fill="#4fb7dc" fill-opacity="1"><g transform="translate(93.304687, 200.999987)"><g><path d="M 17.59375 -31.125 L 30.953125 -31.125 L 30.953125 -24.5625 L 29.359375 -24.5625 L 22.203125 0 L 9.234375 0 L 2.078125 -24.5625 L 0.484375 -24.5625 L 0.484375 -31.125 L 15.84375 -31.125 L 15.84375 -24.5625 L 13.765625 -24.5625 L 16.515625 -11.15625 L 16.921875 -11.15625 L 19.6875 -24.5625 L 17.59375 -24.5625 Z M 17.59375 -31.125 "/></g></g></g><g fill="#4fb7dc" fill-opacity="1"><g transform="translate(124.741559, 200.999987)"><g><path d="M 2.640625 -24.4375 L 2.640625 -31.125 L 10.796875 -31.125 L 10.796875 -24.4375 Z M 0.71875 0 L 0.71875 -6.5625 L 2.484375 -6.5625 L 2.484375 -15.6875 L 0.71875 -15.6875 L 0.71875 -22.234375 L 11.6875 -22.234375 L 11.6875 -6.5625 L 13.4375 -6.5625 L 13.4375 0 Z M 0.71875 0 "/></g></g></g><g fill="#4fb7dc" fill-opacity="1"><g transform="translate(138.58019, 200.999987)"><g><path d="M 27.28125 -6.5625 L 27.28125 0 L 14.640625 0 L 14.640625 -6.5625 L 16.3125 -6.5625 L 16.3125 -13.125 C 16.3125 -14 16.125 -14.644531 15.75 -15.0625 C 15.382812 -15.476562 14.828125 -15.6875 14.078125 -15.6875 C 12.484375 -15.6875 11.6875 -14.832031 11.6875 -13.125 L 11.6875 -6.5625 L 13.359375 -6.5625 L 13.359375 0 L 0.71875 0 L 0.71875 -6.5625 L 2.484375 -6.5625 L 2.484375 -15.6875 L 0.71875 -15.6875 L 0.71875 -22.234375 L 11.6875 -22.234375 L 11.6875 -19.125 C 13.601562 -21.570312 16 -22.796875 18.875 -22.796875 C 21.09375 -22.796875 22.753906 -22.101562 23.859375 -20.71875 C 24.960938 -19.332031 25.515625 -17.425781 25.515625 -15 L 25.515625 -6.5625 Z M 27.28125 -6.5625 "/></g></g></g><g fill="#4fb7dc" fill-opacity="1"><g transform="translate(166.417426, 200.999987)"><g><path d="M 2.640625 -24.4375 L 2.640625 -31.125 L 10.796875 -31.125 L 10.796875 -24.4375 Z M 0.71875 0 L 0.71875 -6.5625 L 2.484375 -6.5625 L 2.484375 -15.6875 L 0.71875 -15.6875 L 0.71875 -22.234375 L 11.6875 -22.234375 L 11.6875 -6.5625 L 13.4375 -6.5625 L 13.4375 0 Z M 0.71875 0 "/></g></g></g><g fill="#4fb7dc" fill-opacity="1"><g transform="translate(180.256056, 200.999987)"><g><path d="M 12.6875 0.5625 C 8.863281 0.5625 5.882812 -0.429688 3.75 -2.421875 C 1.625 -4.410156 0.5625 -7.3125 0.5625 -11.125 C 0.5625 -14.9375 1.625 -17.832031 3.75 -19.8125 C 5.882812 -21.800781 8.847656 -22.796875 12.640625 -22.796875 C 14.484375 -22.796875 16.242188 -22.539062 17.921875 -22.03125 C 19.597656 -21.53125 20.90625 -20.957031 21.84375 -20.3125 L 21.84375 -12.40625 L 14.953125 -12.40625 L 14.953125 -13.125 C 14.953125 -14 14.765625 -14.644531 14.390625 -15.0625 C 14.023438 -15.476562 13.441406 -15.6875 12.640625 -15.6875 C 11.085938 -15.6875 10.3125 -14.832031 10.3125 -13.125 L 10.3125 -9.6875 C 10.3125 -7.601562 11.5 -6.5625 13.875 -6.5625 C 16.09375 -6.5625 18.664062 -6.800781 21.59375 -7.28125 L 21.59375 -1 C 20.6875 -0.601562 19.410156 -0.242188 17.765625 0.078125 C 16.128906 0.398438 14.4375 0.5625 12.6875 0.5625 Z M 12.6875 0.5625 "/></g></g></g><g fill="#4fb7dc" fill-opacity="1"><g transform="translate(202.733819, 200.999987)"><g><path d="M 2.640625 -24.4375 L 2.640625 -31.125 L 10.796875 -31.125 L 10.796875 -24.4375 Z M 0.71875 0 L 0.71875 -6.5625 L 2.484375 -6.5625 L 2.484375 -15.6875 L 0.71875 -15.6875 L 0.71875 -22.234375 L 11.6875 -22.234375 L 11.6875 -6.5625 L 13.4375 -6.5625 L 13.4375 0 Z M 0.71875 0 "/></g></g></g><g fill="#4fb7dc" fill-opacity="1"><g transform="translate(216.572449, 200.999987)"><g><path d="M 27.046875 -6.5625 L 27.046875 0 L 16.078125 0 L 16.078125 -3.125 C 14.160156 -0.664062 11.757812 0.5625 8.875 0.5625 C 6.664062 0.5625 5.003906 -0.128906 3.890625 -1.515625 C 2.785156 -2.898438 2.234375 -4.804688 2.234375 -7.234375 L 2.234375 -15.6875 L 0.484375 -15.6875 L 0.484375 -22.234375 L 11.4375 -22.234375 L 11.4375 -9.125 C 11.4375 -8.238281 11.628906 -7.585938 12.015625 -7.171875 C 12.398438 -6.765625 12.984375 -6.5625 13.765625 -6.5625 C 14.535156 -6.5625 15.113281 -6.765625 15.5 -7.171875 C 15.882812 -7.585938 16.078125 -8.238281 16.078125 -9.125 L 16.078125 -15.6875 L 13.921875 -15.6875 L 13.921875 -22.234375 L 25.28125 -22.234375 L 25.28125 -6.5625 Z M 27.046875 -6.5625 "/></g></g></g><g fill="#4fb7dc" fill-opacity="1"><g transform="translate(244.009726, 200.999987)"><g><path d="M 10.4375 0.5625 C 7.082031 0.5625 3.84375 0.0234375 0.71875 -1.046875 L 0.71875 -6.953125 L 7.203125 -6.953125 L 7.203125 -6.5625 C 7.203125 -5.28125 8.015625 -4.640625 9.640625 -4.640625 C 11.078125 -4.640625 11.796875 -5.132812 11.796875 -6.125 C 11.796875 -6.65625 11.585938 -7.050781 11.171875 -7.3125 C 10.765625 -7.582031 10.039062 -7.8125 9 -8 L 7 -8.359375 C 2.8125 -9.109375 0.71875 -11.484375 0.71875 -15.484375 C 0.71875 -17.796875 1.597656 -19.59375 3.359375 -20.875 C 5.117188 -22.15625 7.492188 -22.796875 10.484375 -22.796875 C 13.816406 -22.796875 16.628906 -22.238281 18.921875 -21.125 L 18.921875 -15.5625 L 12.84375 -15.5625 L 12.84375 -15.953125 C 12.84375 -16.492188 12.660156 -16.898438 12.296875 -17.171875 C 11.941406 -17.453125 11.414062 -17.59375 10.71875 -17.59375 C 9.382812 -17.59375 8.71875 -17.164062 8.71875 -16.3125 C 8.71875 -15.863281 8.90625 -15.519531 9.28125 -15.28125 C 9.65625 -15.039062 10.332031 -14.8125 11.3125 -14.59375 L 13.59375 -14.15625 C 15.96875 -13.707031 17.660156 -12.867188 18.671875 -11.640625 C 19.691406 -10.410156 20.203125 -8.835938 20.203125 -6.921875 C 20.203125 -4.492188 19.351562 -2.640625 17.65625 -1.359375 C 15.96875 -0.078125 13.5625 0.5625 10.4375 0.5625 Z M 10.4375 0.5625 "/></g></g></g><g fill="#ffffff" fill-opacity="1"><g transform="translate(264.773426, 200.999987)"><g><path d="M -0.796875 6.046875 L -0.796875 4.765625 L 12.046875 -33.6875 L 17.71875 -33.6875 L 17.71875 -32.40625 L 4.921875 6.046875 Z M -0.796875 6.046875 "/></g></g></g><g fill="#ffffff" fill-opacity="1"><g transform="translate(281.691741, 200.999987)"><g><path d="M 1.765625 -2.765625 L 1.765625 -8.953125 L 12.59375 -12.6875 L 12.59375 -13.125 L 1.765625 -16.796875 L 1.765625 -23.046875 L 2.59375 -23.046875 L 18.515625 -16.5625 L 18.515625 -9.203125 L 2.59375 -2.765625 Z M 1.765625 -2.765625 "/></g></g></g></svg>